<svg xmlns="http://www.w3.org/2000/svg" width="920" height="359" viewBox="0 0 920 359">
<style>
.key { fill: #f0f0f0; stroke: #666; stroke-width: 1; rx: 4; }
.label { font-family: sans-serif; font-size: 12px; text-anchor: middle; fill: #333; }
.sub { font-size: 9px; fill: #888; }
.mod { fill: #e0e0e0; }
.layer { fill: #d1c4e9; }
.special { fill: #b3e5fc; }
</style>
<text x="20" y="30" font-family="sans-serif" font-size="20" font-weight="bold">Layer: L2</text>
<g transform="translate(10,62.5)">
<rect class="key" width="50" height="50" />
<text x="25.0" y="30.0" class="label">↓</text>
</g>
<g transform="translate(70,62.5)">
<rect class="key" width="50" height="50" />
<text x="25.0" y="30.0" class="label">↓</text>
</g>
<g transform="translate(130,47.5)">
<rect class="key" width="50" height="50" />
<text x="25.0" y="30.0" class="label">↓</text>
</g>
<g transform="translate(190,40)">
<rect class="key" width="50" height="50" />
<text x="25.0" y="30.0" class="label">↓</text>
</g>
<g transform="translate(250,47.5)">
<rect class="key" width="50" height="50" />
<text x="25.0" y="30.0" class="label">↓</text>
</g>
<g transform="translate(310,55.0)">
<rect class="key" width="50" height="50" />
<text x="25.0" y="30.0" class="label">↓</text>
</g>
<g transform="translate(550,55.0)">
<rect class="key" width="50" height="50" />
<text x="25.0" y="30.0" class="label">↓</text>
</g>
<g transform="translate(610,47.5)">
<rect class="key" width="50" height="50" />
<text x="25.0" y="30.0" class="label">↓</text>
</g>
<g transform="translate(670,40)">
<rect class="key" width="50" height="50" />
<text x="25.0" y="30.0" class="label">↓</text>
</g>
<g transform="translate(730,47.5)">
<rect class="key" width="50" height="50" />
<text x="25.0" y="30.0" class="label">-</text>
</g>
<g transform="translate(790,62.5)">
<rect class="key" width="50" height="50" />
<text x="25.0" y="30.0" class="label">=</text>
</g>
<g transform="translate(850,62.5)">
<rect class="key" width="50" height="50" />
<text x="25.0" y="30.0" class="label">↓</text>
</g>
<g transform="translate(10,122.5)">
<rect class="key" width="50" height="50" />
<text x="25.0" y="30.0" class="label">`</text>
</g>
<g transform="translate(70,122.5)">
<rect class="key" width="50" height="50" />
<text x="25.0" y="30.0" class="label">↓</text>
</g>
<g transform="translate(130,107.5)">
<rect class="key" width="50" height="50" />
<text x="25.0" y="30.0" class="label">↓</text>
</g>
<g transform="translate(190,100)">
<rect class="key" width="50" height="50" />
<text x="25.0" y="30.0" class="label">↑</text>
</g>
<g transform="translate(250,107.5)">
<rect class="key" width="50" height="50" />
<text x="25.0" y="30.0" class="label">↓</text>
</g>
<g transform="translate(310,115.0)">
<rect class="key" width="50" height="50" />
<text x="25.0" y="30.0" class="label">↓</text>
</g>
<g transform="translate(550,115.0)">
<rect class="key" width="50" height="50" />
<text x="25.0" y="30.0" class="label">↓</text>
</g>
<g transform="translate(610,107.5)">
<rect class="key" width="50" height="50" />
<text x="25.0" y="30.0" class="label">↓</text>
</g>
<g transform="translate(670,100)">
<rect class="key" width="50" height="50" />
<text x="25.0" y="30.0" class="label">↓</text>
</g>
<g transform="translate(730,107.5)">
<rect class="key mod" width="50" height="50" />
<text x="25.0" y="30.0" class="label">[</text>
</g>
<g transform="translate(790,122.5)">
<rect class="key mod" width="50" height="50" />
<text x="25.0" y="30.0" class="label">]</text>
</g>
<g transform="translate(850,122.5)">
<rect class="key" width="50" height="50" />
<text x="25.0" y="30.0" class="label">↓</text>
</g>
<g transform="translate(10,182.5)">
<rect class="key mod" width="50" height="50" />
<text x="25.0" y="30.0" class="label">SHFT</text>
</g>
<g transform="translate(70,182.5)">
<rect class="key" width="50" height="50" />
<text x="25.0" y="30.0" class="label">↓</text>
</g>
<g transform="translate(130,167.5)">
<rect class="key mod" width="50" height="50" />
<text x="25.0" y="30.0" class="label">←</text>
</g>
<g transform="translate(190,160)">
<rect class="key" width="50" height="50" />
<text x="25.0" y="30.0" class="label">↓</text>
</g>
<g transform="translate(250,167.5)">
<rect class="key mod" width="50" height="50" />
<text x="25.0" y="30.0" class="label">→</text>
</g>
<g transform="translate(310,175.0)">
<rect class="key" width="50" height="50" />
<text x="25.0" y="30.0" class="label">↓</text>
</g>
<g transform="translate(550,175.0)">
<rect class="key" width="50" height="50" />
<text x="25.0" y="30.0" class="label">↓</text>
</g>
<g transform="translate(610,167.5)">
<rect class="key" width="50" height="50" />
<text x="25.0" y="30.0" class="label">↓</text>
</g>
<g transform="translate(670,160)">
<rect class="key" width="50" height="50" />
<text x="25.0" y="30.0" class="label">↓</text>
</g>
<g transform="translate(730,167.5)">
<rect class="key" width="50" height="50" />
<text x="25.0" y="30.0" class="label">↓</text>
</g>
<g transform="translate(790,182.5)">
<rect class="key" width="50" height="50" />
<text x="25.0" y="30.0" class="label">↓</text>
</g>
<g transform="translate(850,182.5)">
<rect class="key" width="50" height="50" />
<text x="25.0" y="30.0" class="label">↓</text>
</g>
<g transform="translate(10,242.5)">
<rect class="key mod" width="50" height="50" />
<text x="25.0" y="30.0" class="label">CTRL</text>
</g>
<g transform="translate(70,242.5)">
<rect class="key" width="50" height="50" />
<text x="25.0" y="30.0" class="label">↓</text>
</g>
<g transform="translate(130,227.5)">
<rect class="key" width="50" height="50" />
<text x="25.0" y="30.0" class="label">↓</text>
</g>
<g transform="translate(190,220)">
<rect class="key" width="50" height="50" />
<text x="25.0" y="30.0" class="label">↓</text>
</g>
<g transform="translate(250,227.5)">
<rect class="key" width="50" height="50" />
<text x="25.0" y="30.0" class="label">↓</text>
</g>
<g transform="translate(310,235.0)">
<rect class="key" width="50" height="50" />
<text x="25.0" y="30.0" class="label">↓</text>
</g>
<g transform="translate(550,235.0)">
<rect class="key" width="50" height="50" />
<text x="25.0" y="30.0" class="label">↓</text>
</g>
<g transform="translate(610,227.5)">
<rect class="key" width="50" height="50" />
<text x="25.0" y="30.0" class="label">↓</text>
</g>
<g transform="translate(670,220)">
<rect class="key" width="50" height="50" />
<text x="25.0" y="30.0" class="label">↓</text>
</g>
<g transform="translate(730,227.5)">
<rect class="key" width="50" height="50" />
<text x="25.0" y="30.0" class="label">↓</text>
</g>
<g transform="translate(790,242.5)">
<rect class="key" width="50" height="50" />
<text x="25.0" y="30.0" class="label">↓</text>
</g>
<g transform="translate(850,242.5)">
<rect class="key" width="50" height="50" />
<text x="25.0" y="30.0" class="label">↓</text>
</g>
<g transform="translate(218.8,287.5)">
<rect class="key layer" width="50" height="50" />
<text x="25.0" y="30.0" class="label">L2</text>
</g>
<g transform="translate(235.0,287.5)">
<rect class="key" width="50" height="50" />
<text x="25.0" y="30.0" class="label">CAPS</text>
</g>
<g transform="translate(250,257.5)">
<rect class="key" width="50" height="50" />
<text x="25.0" y="30.0" class="label">↓</text>
</g>
<g transform="translate(610,262.0)">
<rect class="key mod" width="50" height="50" />
<text x="25.0" y="30.0" class="label">GUI</text>
</g>
<g transform="translate(631.0,289.0)">
<rect class="key mod" width="50" height="50" />
<text x="25.0" y="30.0" class="label">ALT</text>
</g>
<g transform="translate(652.0,289.0)">
<rect class="key" width="50" height="50" />
<text x="25.0" y="30.0" class="label">↓</text>
</g>
</svg>