<?xml version="1.0" encoding="UTF-8"?>
<svg xmlns="http://www.w3.org/2000/svg" width="1500" height="700" viewBox="0 0 1500 700">
  <style>
    .k{fill:#f7f7f7;stroke:#333;stroke-width:2}
    .kl{font:14px monospace;fill:#111;text-anchor:middle}
    .title{font:20px sans-serif;fill:#111;font-weight:bold}
  </style>
  <text x="750" y="30" class="title">Silakka54 - Layer: default_layer</text>
  <g transform="translate(60,60)">
    <!-- R1C1 -->
    <g transform="translate(0,0)">
      <rect class="k" x="0" y="0" width="90" height="70" rx="6" ry="6" fill="#f7f7f7"/>
      <text x="45" y="40" class="kl">KP</text>
    </g>
    <!-- R1C2 -->
    <g transform="translate(110,0)">
      <rect class="k" x="0" y="0" width="90" height="70" rx="6" ry="6" fill="#bbdefb"/>
      <text x="45" y="40" class="kl">ESC</text>
    </g>
    <!-- R1C3 -->
    <g transform="translate(220,0)">
      <rect class="k" x="0" y="0" width="90" height="70" rx="6" ry="6" fill="#f7f7f7"/>
      <text x="45" y="40" class="kl">KP</text>
    </g>
    <!-- R1C4 -->
    <g transform="translate(330,0)">
      <rect class="k" x="0" y="0" width="90" height="70" rx="6" ry="6" fill="#bbdefb"/>
      <text x="45" y="40" class="kl">NUMBER.</text>
    </g>
    <!-- R1C5 -->
    <g transform="translate(440,0)">
      <rect class="k" x="0" y="0" width="90" height="70" rx="6" ry="6" fill="#f7f7f7"/>
      <text x="45" y="40" class="kl">KP</text>
    </g>
    <!-- R1C6 -->
    <g transform="translate(550,0)">
      <rect class="k" x="0" y="0" width="90" height="70" rx="6" ry="6" fill="#bbdefb"/>
      <text x="45" y="40" class="kl">NUMBER.</text>
    </g>
    <!-- R1C7 -->
    <g transform="translate(660,0)">
      <rect class="k" x="0" y="0" width="90" height="70" rx="6" ry="6" fill="#f7f7f7"/>
      <text x="45" y="40" class="kl">KP</text>
    </g>
    <!-- R1C8 -->
    <g transform="translate(770,0)">
      <rect class="k" x="0" y="0" width="90" height="70" rx="6" ry="6" fill="#bbdefb"/>
      <text x="45" y="40" class="kl">NUMBER.</text>
    </g>
    <!-- R1C9 -->
    <g transform="translate(880,0)">
      <rect class="k" x="0" y="0" width="90" height="70" rx="6" ry="6" fill="#f7f7f7"/>
      <text x="45" y="40" class="kl">KP</text>
    </g>
    <!-- R1C10 -->
    <g transform="translate(990,0)">
      <rect class="k" x="0" y="0" width="90" height="70" rx="6" ry="6" fill="#bbdefb"/>
      <text x="45" y="40" class="kl">NUMBER.</text>
    </g>
    <!-- R1C11 -->
    <g transform="translate(1100,0)">
      <rect class="k" x="0" y="0" width="90" height="70" rx="6" ry="6" fill="#f7f7f7"/>
      <text x="45" y="40" class="kl">KP</text>
    </g>
    <!-- R1C12 -->
    <g transform="translate(1210,0)">
      <rect class="k" x="0" y="0" width="90" height="70" rx="6" ry="6" fill="#bbdefb"/>
      <text x="45" y="40" class="kl">NUMBER.</text>
    </g>
    <!-- R2C1 -->
    <g transform="translate(0,110)">
      <rect class="k" x="0" y="0" width="90" height="70" rx="6" ry="6" fill="#f7f7f7"/>
      <text x="45" y="40" class="kl">KP</text>
    </g>
    <!-- R2C2 -->
    <g transform="translate(110,110)">
      <rect class="k" x="0" y="0" width="90" height="70" rx="6" ry="6" fill="#bbdefb"/>
      <text x="45" y="40" class="kl">NUMBER.</text>
    </g>
    <!-- R2C3 -->
    <g transform="translate(220,110)">
      <rect class="k" x="0" y="0" width="90" height="70" rx="6" ry="6" fill="#f7f7f7"/>
      <text x="45" y="40" class="kl">KP</text>
    </g>
    <!-- R2C4 -->
    <g transform="translate(330,110)">
      <rect class="k" x="0" y="0" width="90" height="70" rx="6" ry="6" fill="#bbdefb"/>
      <text x="45" y="40" class="kl">NUMBER.</text>
    </g>
    <!-- R2C5 -->
    <g transform="translate(440,110)">
      <rect class="k" x="0" y="0" width="90" height="70" rx="6" ry="6" fill="#f7f7f7"/>
      <text x="45" y="40" class="kl">KP</text>
    </g>
    <!-- R2C6 -->
    <g transform="translate(550,110)">
      <rect class="k" x="0" y="0" width="90" height="70" rx="6" ry="6" fill="#bbdefb"/>
      <text x="45" y="40" class="kl">NUMBER.</text>
    </g>
    <!-- R2C7 -->
    <g transform="translate(660,110)">
      <rect class="k" x="0" y="0" width="90" height="70" rx="6" ry="6" fill="#f7f7f7"/>
      <text x="45" y="40" class="kl">KP</text>
    </g>
    <!-- R2C8 -->
    <g transform="translate(770,110)">
      <rect class="k" x="0" y="0" width="90" height="70" rx="6" ry="6" fill="#bbdefb"/>
      <text x="45" y="40" class="kl">NUMBER.</text>
    </g>
    <!-- R2C9 -->
    <g transform="translate(880,110)">
      <rect class="k" x="0" y="0" width="90" height="70" rx="6" ry="6" fill="#f7f7f7"/>
      <text x="45" y="40" class="kl">KP</text>
    </g>
    <!-- R2C10 -->
    <g transform="translate(990,110)">
      <rect class="k" x="0" y="0" width="90" height="70" rx="6" ry="6" fill="#bbdefb"/>
      <text x="45" y="40" class="kl">NUMBER.</text>
    </g>
    <!-- R2C11 -->
    <g transform="translate(1100,110)">
      <rect class="k" x="0" y="0" width="90" height="70" rx="6" ry="6" fill="#f7f7f7"/>
      <text x="45" y="40" class="kl">KP</text>
    </g>
    <!-- R2C12 -->
    <g transform="translate(1210,110)">
      <rect class="k" x="0" y="0" width="90" height="70" rx="6" ry="6" fill="#bbdefb"/>
      <text x="45" y="40" class="kl">DELETE</text>
    </g>
    <!-- R3C1 -->
    <g transform="translate(0,220)">
      <rect class="k" x="0" y="0" width="90" height="70" rx="6" ry="6" fill="#f7f7f7"/>
      <text x="45" y="40" class="kl">KP</text>
    </g>
    <!-- R3C2 -->
    <g transform="translate(110,220)">
      <rect class="k" x="0" y="0" width="90" height="70" rx="6" ry="6" fill="#c8e6c9"/>
      <text x="45" y="40" class="kl">TAB</text>
    </g>
    <!-- R3C3 -->
    <g transform="translate(220,220)">
      <rect class="k" x="0" y="0" width="90" height="70" rx="6" ry="6" fill="#f7f7f7"/>
      <text x="45" y="40" class="kl">KP</text>
    </g>
    <!-- R3C4 -->
    <g transform="translate(330,220)">
      <rect class="k" x="0" y="0" width="90" height="70" rx="6" ry="6" fill="#bbdefb"/>
      <text x="45" y="40" class="kl">Q</text>
    </g>
    <!-- R3C5 -->
    <g transform="translate(440,220)">
      <rect class="k" x="0" y="0" width="90" height="70" rx="6" ry="6" fill="#f7f7f7"/>
      <text x="45" y="40" class="kl">KP</text>
    </g>
    <!-- R3C6 -->
    <g transform="translate(550,220)">
      <rect class="k" x="0" y="0" width="90" height="70" rx="6" ry="6" fill="#bbdefb"/>
      <text x="45" y="40" class="kl">W</text>
    </g>
    <!-- R3C7 -->
    <g transform="translate(660,220)">
      <rect class="k" x="0" y="0" width="90" height="70" rx="6" ry="6" fill="#f7f7f7"/>
      <text x="45" y="40" class="kl">KP</text>
    </g>
    <!-- R3C8 -->
    <g transform="translate(770,220)">
      <rect class="k" x="0" y="0" width="90" height="70" rx="6" ry="6" fill="#bbdefb"/>
      <text x="45" y="40" class="kl">E</text>
    </g>
    <!-- R3C9 -->
    <g transform="translate(880,220)">
      <rect class="k" x="0" y="0" width="90" height="70" rx="6" ry="6" fill="#f7f7f7"/>
      <text x="45" y="40" class="kl">KP</text>
    </g>
    <!-- R3C10 -->
    <g transform="translate(990,220)">
      <rect class="k" x="0" y="0" width="90" height="70" rx="6" ry="6" fill="#bbdefb"/>
      <text x="45" y="40" class="kl">R</text>
    </g>
    <!-- R3C11 -->
    <g transform="translate(1100,220)">
      <rect class="k" x="0" y="0" width="90" height="70" rx="6" ry="6" fill="#f7f7f7"/>
      <text x="45" y="40" class="kl">KP</text>
    </g>
    <!-- R3C12 -->
    <g transform="translate(1210,220)">
      <rect class="k" x="0" y="0" width="90" height="70" rx="6" ry="6" fill="#bbdefb"/>
      <text x="45" y="40" class="kl">T</text>
    </g>
    <!-- R4C1 -->
    <g transform="translate(0,330)">
      <rect class="k" x="0" y="0" width="90" height="70" rx="6" ry="6" fill="#f7f7f7"/>
      <text x="45" y="40" class="kl">KP</text>
    </g>
    <!-- R4C2 -->
    <g transform="translate(110,330)">
      <rect class="k" x="0" y="0" width="90" height="70" rx="6" ry="6" fill="#bbdefb"/>
      <text x="45" y="40" class="kl">Y</text>
    </g>
    <!-- R4C3 -->
    <g transform="translate(220,330)">
      <rect class="k" x="0" y="0" width="90" height="70" rx="6" ry="6" fill="#f7f7f7"/>
      <text x="45" y="40" class="kl">KP</text>
    </g>
    <!-- R4C4 -->
    <g transform="translate(330,330)">
      <rect class="k" x="0" y="0" width="90" height="70" rx="6" ry="6" fill="#bbdefb"/>
      <text x="45" y="40" class="kl">U</text>
    </g>
    <!-- R4C5 -->
    <g transform="translate(440,330)">
      <rect class="k" x="0" y="0" width="90" height="70" rx="6" ry="6" fill="#f7f7f7"/>
      <text x="45" y="40" class="kl">KP</text>
    </g>
    <!-- R4C6 -->
    <g transform="translate(550,330)">
      <rect class="k" x="0" y="0" width="90" height="70" rx="6" ry="6" fill="#bbdefb"/>
      <text x="45" y="40" class="kl">I</text>
    </g>
    <!-- R4C7 -->
    <g transform="translate(660,330)">
      <rect class="k" x="0" y="0" width="90" height="70" rx="6" ry="6" fill="#f7f7f7"/>
      <text x="45" y="40" class="kl">KP</text>
    </g>
    <!-- R4C8 -->
    <g transform="translate(770,330)">
      <rect class="k" x="0" y="0" width="90" height="70" rx="6" ry="6" fill="#bbdefb"/>
      <text x="45" y="40" class="kl">O</text>
    </g>
    <!-- R4C9 -->
    <g transform="translate(880,330)">
      <rect class="k" x="0" y="0" width="90" height="70" rx="6" ry="6" fill="#f7f7f7"/>
      <text x="45" y="40" class="kl">KP</text>
    </g>
    <!-- R4C10 -->
    <g transform="translate(990,330)">
      <rect class="k" x="0" y="0" width="90" height="70" rx="6" ry="6" fill="#bbdefb"/>
      <text x="45" y="40" class="kl">P</text>
    </g>
    <!-- R4C11 -->
    <g transform="translate(1100,330)">
      <rect class="k" x="0" y="0" width="90" height="70" rx="6" ry="6" fill="#f7f7f7"/>
      <text x="45" y="40" class="kl">KP</text>
    </g>
    <!-- R4C12 -->
    <g transform="translate(1210,330)">
      <rect class="k" x="0" y="0" width="90" height="70" rx="6" ry="6" fill="#bbdefb"/>
      <text x="45" y="40" class="kl">BACKSL.</text>
    </g>
    <!-- Thumb cluster -->
    <!-- T1 -->
    <g transform="translate(0,470)">
      <rect class="k" x="0" y="0" width="90" height="70" rx="6" ry="6" fill="#f7f7f7"/>
      <text x="45" y="40" class="kl">KP</text>
    </g>
    <!-- T2 -->
    <g transform="translate(110,470)">
      <rect class="k" x="0" y="0" width="90" height="70" rx="6" ry="6" fill="#bbdefb"/>
      <text x="45" y="40" class="kl">LSHFT</text>
    </g>
    <!-- T3 -->
    <g transform="translate(220,470)">
      <rect class="k" x="0" y="0" width="190" height="70" rx="6" ry="6" fill="#f7f7f7"/>
      <text x="95" y="40" class="kl">KP</text>
    </g>
    <!-- T4 -->
    <g transform="translate(430,470)">
      <rect class="k" x="0" y="0" width="90" height="70" rx="6" ry="6" fill="#bbdefb"/>
      <text x="45" y="40" class="kl">A</text>
    </g>
    <!-- T5 -->
    <g transform="translate(540,470)">
      <rect class="k" x="0" y="0" width="90" height="70" rx="6" ry="6" fill="#f7f7f7"/>
      <text x="45" y="40" class="kl">KP</text>
    </g>
    <!-- T6 -->
    <g transform="translate(650,470)">
      <rect class="k" x="0" y="0" width="90" height="70" rx="6" ry="6" fill="#bbdefb"/>
      <text x="45" y="40" class="kl">S</text>
    </g>
  </g>
</svg>